Genre:Action | Horror | Sci-Fi
Language:English
IMDb: http://www.imdb.com/title/tt0822847/
Source:DVD5.ELEKTRI4KA/IMAGINE Thanks!
Subtitles:Romana

Format : MPEG-4
Format profile : Base Media
Codec ID : isom
File size : 941 MiB
Duration : 1h 23mn
Overall bit rate : 1 571 Kbps

Video
ID : 1
Format : AVC
Format/Info : Advanced Video Codec
Format profile : High@L4.1
Format settings, CABAC : Yes
Format settings, ReFrames : 3 frames
Codec ID : avc1
Codec ID/Info : Advanced Video Coding
Duration : 1h 23mn
Bit rate mode : Variable
Bit rate : 1 342 Kbps
Maximum bit rate : 6 949 Kbps
Width : 720 pixels
Height : 304 pixels
Display aspect ratio : 2.35:1
Frame rate mode : Constant
Frame rate : 25.000 fps
Color space : YUV
Chroma subsampling : 4:2:0
Bit depth : 8 bits
Scan type : Progressive
Bits/(Pixel*Frame) : 0.245
Stream size : 805 MiB (85%)
Writing library : x264

Audio
ID : 2
Format : AAC
Format/Info : Advanced Audio Codec
Format version : Version 4
Format profile : LC
Format settings, SBR : No
Codec ID : 40
Duration : 1h 23mn
Bit rate mode : Variable
Bit rate : 224 Kbps
Maximum bit rate : 250 Kbps
Channel(s) : 2 channels
Channel positions : Front: L R
Sampling rate : 48.0 KHz
Stream size : 134 MiB (14%)


Plot:
A priest disobeys church law to track down the vampires who kidnapped his niece.


Screens:
 
http://www.pix2links.com/images/49197469177595509428.png 
http://www.pix2links.com/images/14001165553248676666.png 
http://www.pix2links.com/images/78318214954261937892.png 
http://www.pix2links.com/images/65200121246810479307.png 
http://www.pix2links.com/images/42963301360433530103.png 
http://www.pix2links.com/images/08563916954822852128.png 
http://www.pix2links.com/images/51859586600547286074.png 
http://www.pix2links.com/images/65180269188565503229.png

Greets:

INK,CRYS,IMAGINE,LKRG,FXG,3Li,FLAWL3SS,TA,iLLUSiON,ViSiON,DTRG SAFCuk009,LU,TheFalcon007,MYSTiC,PrisM,Noir,WBZ,LAP,Rx,Kingdom,SAFCuk009+Fabreezy,HDLiTE,TWiZTED,ExtraTorrentRG.ELEKTRI4KA,MAGNAT,CM8
And to all the other p2p grps past and present.